<?xml version="1.0" standalone="no"?>
<!DOCTYPE svg PUBLIC "-//W3C//DTD SVG 20010904//EN"
 "http://www.w3.org/TR/2001/REC-SVG-20010904/DTD/svg10.dtd">
<svg version="1.0" xmlns="http://www.w3.org/2000/svg"
 width="366.000000pt" height="366.000000pt" viewBox="0 0 366.000000 366.000000"
 preserveAspectRatio="xMidYMid meet">
<metadata>
Created by potrace 1.11, written by Peter Selinger 2001-2013
</metadata>
<g transform="translate(0.000000,366.000000) scale(0.100000,-0.100000)"
fill="#000000" stroke="none">
<path d="M1285 3575 l-70 -23 83 -1 82 -1 0 -55 0 -55 -110 0 -110 0 0 45 c0
25 -4 45 -8 45 -20 0 -256 -124 -331 -175 -450 -302 -736 -763 -806 -1298 -64
-491 84 -1000 404 -1391 122 -149 402 -389 409 -352 3 12 16 16 58 16 l54 0 0
-51 0 -50 103 -49 c56 -28 105 -50 110 -50 4 0 7 70 7 155 l0 155 -55 0 -55 0
0 55 0 55 55 0 55 0 0 55 0 55 110 0 110 0 0 -55 0 -55 -55 0 -55 0 0 -35 0
-35 560 0 560 0 0 35 0 35 -55 0 -55 0 0 55 0 55 110 0 110 0 0 -55 0 -55 55
0 55 0 0 -55 0 -55 -55 0 -55 0 0 -155 c0 -85 3 -155 8 -155 4 0 53 22 110 50
l102 49 0 50 0 51 54 0 c42 0 55 -4 58 -16 4 -21 145 84 262 196 161 155 279
315 377 515 406 828 139 1812 -632 2330 -75 51 -311 175 -331 175 -4 0 -8 -20
-8 -45 l0 -45 -110 0 -110 0 0 55 0 55 83 1 82 0 -51 19 c-28 10 -65 21 -82
25 -29 6 -32 5 -32 -19 l0 -26 -450 0 -450 0 0 25 c0 30 -6 30 -95 0z m-125
-190 l0 -55 -55 0 -55 0 0 -55 0 -55 -55 0 -55 0 0 -55 0 -55 -55 0 -55 0 0
-115 0 -115 -55 0 -55 0 0 -335 0 -335 55 0 55 0 0 225 0 225 55 0 55 0 0 110
0 110 890 0 890 0 0 -110 0 -110 55 0 55 0 0 -225 0 -225 55 0 55 0 0 335 0
335 -55 0 -55 0 0 115 0 115 -55 0 -55 0 0 55 0 55 -55 0 -55 0 0 55 0 55 -55
0 -55 0 0 55 0 55 55 0 55 0 0 -55 0 -55 55 0 55 0 0 -55 0 -55 55 0 55 0 0
-55 0 -55 55 0 55 0 0 -115 0 -115 55 0 55 0 0 -385 0 -385 55 0 55 0 0 -225
0 -225 -55 0 -55 0 0 -55 0 -55 -110 0 -110 0 0 -55 0 -55 -55 0 -55 0 0 -110
0 -110 -55 0 -55 0 0 110 0 110 55 0 55 0 0 110 0 110 55 0 55 0 0 270 0 270
-55 0 -55 0 0 230 0 230 -55 0 -55 0 0 55 0 55 -780 0 -780 0 0 -55 0 -55 -55
0 -55 0 0 -230 0 -230 -55 0 -55 0 0 -270 0 -270 55 0 55 0 0 -110 0 -110 55
0 55 0 0 -115 0 -115 55 0 55 0 0 -55 0 -55 110 0 110 0 0 -55 0 -55 450 0
450 0 0 55 0 55 110 0 110 0 0 55 0 55 55 0 55 0 0 -55 0 -55 -55 0 -55 0 0
-55 0 -55 -110 0 -110 0 0 -55 0 -55 -115 0 -115 0 0 -55 0 -55 115 0 115 0 0
-55 0 -55 -170 0 -170 0 0 -55 0 -55 -110 0 -110 0 0 55 0 55 -170 0 -170 0 0
55 0 55 115 0 115 0 0 55 0 55 -115 0 -115 0 0 55 0 55 -110 0 -110 0 0 55 0
55 -55 0 -55 0 0 55 0 55 -55 0 -55 0 0 115 0 115 -55 0 -55 0 0 55 0 55 -110
0 -110 0 0 55 0 55 -55 0 -55 0 0 225 0 225 55 0 55 0 0 385 0 385 55 0 55 0
0 115 0 115 55 0 55 0 0 55 0 55 55 0 55 0 0 55 0 55 55 0 55 0 0 55 0 55 55
0 55 0 0 -55z m120 -1385 l0 -110 -55 0 -55 0 0 110 0 110 55 0 55 0 0 -110z
m1210 0 l0 -110 -55 0 -55 0 0 110 0 110 55 0 55 0 0 -110z m-550 -330 l0
-110 -110 0 -110 0 0 55 0 55 55 0 55 0 0 55 0 55 55 0 55 0 0 -110z m-330
-285 l0 -55 220 0 220 0 0 55 0 55 55 0 55 0 0 -55 0 -55 -55 0 -55 0 0 -55 0
-55 -220 0 -220 0 0 55 0 55 -55 0 -55 0 0 55 0 55 55 0 55 0 0 -55z m-560
-1000 l0 -55 -55 0 -55 0 0 55 0 55 55 0 55 0 0 -55z m1670 0 l0 -55 -55 0
-55 0 0 55 0 55 55 0 55 0 0 -55z"/>
<path d="M610 1885 l0 -225 55 0 55 0 0 225 0 225 -55 0 -55 0 0 -225z"/>
<path d="M2940 1885 l0 -225 55 0 55 0 0 225 0 225 -55 0 -55 0 0 -225z"/>
<path d="M1720 770 l0 -110 110 0 110 0 0 110 0 110 -110 0 -110 0 0 -110z"/>
<path d="M1270 335 l0 -95 560 0 560 0 0 95 0 95 -560 0 -560 0 0 -95z"/>
<path d="M1270 141 c0 -28 4 -52 9 -55 23 -14 219 -57 324 -71 150 -19 304
-19 454 0 105 14 301 57 324 71 5 3 9 27 9 55 l0 49 -560 0 -560 0 0 -49z"/>
</g>
</svg>
