<?xml version="1.0" encoding="UTF-8" standalone="no"?>
<svg
   xmlns:dc="http://purl.org/dc/elements/1.1/"
   xmlns:cc="http://creativecommons.org/ns#"
   xmlns:rdf="http://www.w3.org/1999/02/22-rdf-syntax-ns#"
   xmlns:svg="http://www.w3.org/2000/svg"
   xmlns="http://www.w3.org/2000/svg"
   viewBox="0 0 378.48401 121.58667"
   height="121.58667"
   width="378.48401"
   xml:space="preserve"
   id="svg2"
   version="1.1"><metadata
     id="metadata8"><rdf:RDF><cc:Work
         rdf:about=""><dc:format>image/svg+xml</dc:format><dc:type
           rdf:resource="http://purl.org/dc/dcmitype/StillImage" /></cc:Work></rdf:RDF></metadata><defs
     id="defs6" /><g
     transform="matrix(1.3333333,0,0,-1.3333333,0,121.58667)"
     id="g10"><g
       transform="translate(141.931,12.154)"
       id="g12"><g
         id="g14"><g
           id="g16"><g
             id="g18"><path
               id="path20"
               style="fill:#9e7bff;fill-opacity:1;fill-rule:nonzero;stroke:#9e7bff;stroke-width:0.3985;stroke-linecap:butt;stroke-linejoin:miter;stroke-miterlimit:10;stroke-dasharray:none;stroke-opacity:1"
               d="m -101.43192,0 c 0,6.60281 -5.35249,11.95532 -11.95532,11.95532 -6.60283,0 -11.95532,-5.35251 -11.95532,-11.95532 0,-6.60281 5.35249,-11.95532 11.95532,-11.95532 6.60283,0 11.95532,5.35251 11.95532,11.95532 z" /></g><g
             id="g22"><g
               id="g24" /><g
               transform="translate(-124.043,-0.982)"
               id="g26"><g
                 id="g28"><g
                   transform="translate(-17.888,-11.172)"
                   id="g30"><text
                     id="text34"
                     style="font-variant:normal;font-weight:normal;font-size:9.96259975px;font-family:CMMI10;-inkscape-font-specification:CMMI10;writing-mode:lr-tb;fill:#ffffff;fill-opacity:1;fill-rule:nonzero;stroke:none"
                     transform="matrix(1,0,0,-1,17.888,11.172)"><tspan
                       id="tspan32"
                       y="0"
                       x="0">x</tspan></text>
<text
                     id="text38"
                     style="font-variant:normal;font-weight:normal;font-size:6.97380018px;font-family:CMMI7;-inkscape-font-specification:CMMI7;writing-mode:lr-tb;fill:#ffffff;fill-opacity:1;fill-rule:nonzero;stroke:none"
                     transform="matrix(1,0,0,-1,23.582,9.678)"><tspan
                       id="tspan36"
                       y="0"
                       x="0">n</tspan></text>
<text
                     id="text42"
                     style="font-variant:normal;font-weight:normal;font-size:6.97380018px;font-family:CMSY7;-inkscape-font-specification:CMSY7;writing-mode:lr-tb;fill:#ffffff;fill-opacity:1;fill-rule:nonzero;stroke:none"
                     transform="matrix(1,0,0,-1,28.507,9.678)"><tspan
                       id="tspan40"
                       y="0"
                       x="0">−</tspan></text>
<text
                     id="text46"
                     style="font-variant:normal;font-weight:normal;font-size:6.97380018px;font-family:CMR7;-inkscape-font-specification:CMR7;writing-mode:lr-tb;fill:#ffffff;fill-opacity:1;fill-rule:nonzero;stroke:none"
                     transform="matrix(1,0,0,-1,34.734,9.678)"><tspan
                       id="tspan44"
                       y="0"
                       x="0">1</tspan></text>
<g
                     transform="translate(17.888,11.172)"
                     id="g48" /></g></g><g
                 transform="translate(124.043,0.982)"
                 id="g50" /></g></g><g
             id="g52"><g
               id="g54" /><g
               transform="translate(-88.913,-2.49)"
               id="g56"><g
                 id="g58"><g
                   transform="translate(-53.018,-9.664)"
                   id="g60"><text
                     id="text64"
                     style="font-variant:normal;font-weight:normal;font-size:9.96259975px;font-family:CMMI10;-inkscape-font-specification:CMMI10;writing-mode:lr-tb;fill:#ffffff;fill-opacity:1;fill-rule:nonzero;stroke:none"
                     transform="matrix(1,0,0,-1,53.018,9.664)"><tspan
                       id="tspan62"
                       y="0"
                       x="0">&lt;</tspan></text>
<g
                     transform="translate(53.018,9.664)"
                     id="g66" /></g></g><g
                 transform="translate(88.913,2.49)"
                 id="g68" /></g></g><g
             id="g70"><path
               id="path72"
               style="fill:none;stroke:#ffffff;stroke-width:0.3985;stroke-linecap:butt;stroke-linejoin:miter;stroke-miterlimit:10;stroke-dasharray:none;stroke-opacity:1"
               d="M -99.21382,70.867 V 44.6462 c 0,-1.17417 -0.95183,-2.126 -2.12599,-2.126 h -38.26824 c -1.17416,0 -2.12599,-0.95183 -2.12599,-2.126 V 14.63167" /><g
               transform="rotate(-90,-63.551185,78.182855)"
               id="g74"><g
                 id="g76"><path
                   id="path78"
                   style="fill:none;stroke:#ffffff;stroke-width:0.31878999;stroke-linecap:round;stroke-linejoin:round;stroke-miterlimit:10;stroke-dasharray:none;stroke-opacity:1"
                   d="M -1.19551,1.59401 C -1.09587,0.99626 0,0.09961 0.29886,0 0,-0.09961 -1.09587,-0.99626 -1.19551,-1.59401" /></g></g></g><g
             id="g80"><path
               id="path82"
               style="fill:none;stroke:#ffffff;stroke-width:0.3985;stroke-linecap:butt;stroke-linejoin:miter;stroke-miterlimit:10;stroke-dasharray:none;stroke-opacity:1"
               d="M -99.21382,70.867 V 44.6462 c 0,-1.17417 0.95182,-2.126 2.12599,-2.126 h 9.92142 c 1.17416,0 2.12599,-0.95183 2.12599,-2.126 V 14.63167" /><g
               transform="rotate(-90,-35.204375,49.836045)"
               id="g84"><g
                 id="g86"><path
                   id="path88"
                   style="fill:none;stroke:#ffffff;stroke-width:0.31878999;stroke-linecap:round;stroke-linejoin:round;stroke-miterlimit:10;stroke-dasharray:none;stroke-opacity:1"
                   d="M -1.19551,1.59401 C -1.09587,0.99626 0,0.09961 0.29886,0 0,-0.09961 -1.09587,-0.99626 -1.19551,-1.59401" /></g></g></g><g
             id="g90"><path
               id="path92"
               style="fill:none;stroke:#ffffff;stroke-width:0.3985;stroke-linecap:butt;stroke-linejoin:miter;stroke-miterlimit:10;stroke-dasharray:none;stroke-opacity:1"
               d="M -99.21382,70.867 V 44.6462 c 0,-1.17417 0.95182,-2.126 2.12599,-2.126 h 66.61503 c 1.17417,0 2.126,-0.95183 2.126,-2.126 V 14.63167" /><g
               transform="rotate(-90,-6.857565,21.489235)"
               id="g94"><g
                 id="g96"><path
                   id="path98"
                   style="fill:none;stroke:#ffffff;stroke-width:0.31878999;stroke-linecap:round;stroke-linejoin:round;stroke-miterlimit:10;stroke-dasharray:none;stroke-opacity:1"
                   d="M -1.19551,1.59401 C -1.09587,0.99626 0,0.09961 0.29886,0 0,-0.09961 -1.09587,-0.99626 -1.19551,-1.59401" /></g></g></g><g
             id="g100"><path
               id="path102"
               style="fill:none;stroke:#ffffff;stroke-width:0.3985;stroke-linecap:butt;stroke-linejoin:miter;stroke-miterlimit:10;stroke-dasharray:none;stroke-opacity:1"
               d="M -99.21382,70.867 V 44.6462 c 0,-1.17417 0.95182,-2.126 2.12599,-2.126 H 26.22081 c 1.17416,0 2.12599,-0.95183 2.12599,-2.126 V 14.63167" /><g
               transform="rotate(-90,21.489235,-6.857565)"
               id="g104"><g
                 id="g106"><path
                   id="path108"
                   style="fill:none;stroke:#ffffff;stroke-width:0.31878999;stroke-linecap:round;stroke-linejoin:round;stroke-miterlimit:10;stroke-dasharray:none;stroke-opacity:1"
                   d="M -1.19551,1.59401 C -1.09587,0.99626 0,0.09961 0.29886,0 0,-0.09961 -1.09587,-0.99626 -1.19551,-1.59401" /></g></g></g><g
             id="g110"><path
               id="path112"
               style="fill:none;stroke:#ffffff;stroke-width:0.3985;stroke-linecap:butt;stroke-linejoin:miter;stroke-miterlimit:10;stroke-dasharray:none;stroke-opacity:1"
               d="M -99.21382,70.867 V 44.6462 c 0,-1.17417 0.95182,-2.126 2.12599,-2.126 H 82.91443 c 1.17417,0 2.12599,-0.95183 2.12599,-2.126 V 14.63167" /><g
               transform="rotate(-90,49.836045,-35.204375)"
               id="g114"><g
                 id="g116"><path
                   id="path118"
                   style="fill:none;stroke:#ffffff;stroke-width:0.31878999;stroke-linecap:round;stroke-linejoin:round;stroke-miterlimit:10;stroke-dasharray:none;stroke-opacity:1"
                   d="M -1.19551,1.59401 C -1.09587,0.99626 0,0.09961 0.29886,0 0,-0.09961 -1.09587,-0.99626 -1.19551,-1.59401" /></g></g></g><g
             id="g120"><path
               id="path122"
               style="fill:none;stroke:#ffffff;stroke-width:0.3985;stroke-linecap:butt;stroke-linejoin:miter;stroke-miterlimit:10;stroke-dasharray:none;stroke-opacity:1"
               d="M -99.21382,70.867 V 44.6462 c 0,-1.17417 0.95182,-2.126 2.12599,-2.126 h 236.69588 c 1.17416,0 2.12599,-0.95183 2.12599,-2.126 V 14.63167" /><g
               transform="rotate(-90,78.182855,-63.551185)"
               id="g124"><g
                 id="g126"><path
                   id="path128"
                   style="fill:none;stroke:#ffffff;stroke-width:0.31878999;stroke-linecap:round;stroke-linejoin:round;stroke-miterlimit:10;stroke-dasharray:none;stroke-opacity:1"
                   d="M -1.19551,1.59401 C -1.09587,0.99626 0,0.09961 0.29886,0 0,-0.09961 -1.09587,-0.99626 -1.19551,-1.59401" /></g></g></g><g
             id="g130"><path
               id="path132"
               style="fill:#9e7bff;fill-opacity:1;fill-rule:nonzero;stroke:#9e7bff;stroke-width:0.3985;stroke-linecap:butt;stroke-linejoin:miter;stroke-miterlimit:10;stroke-dasharray:none;stroke-opacity:1"
               d="m -91.2436,70.867 c 0,4.40189 -3.56834,7.97022 -7.97022,7.97022 -4.40188,0 -7.97022,-3.56833 -7.97022,-7.97022 0,-4.40188 3.56834,-7.97021 7.97022,-7.97021 4.40188,0 7.97022,3.56833 7.97022,7.97021 z" /></g><g
             id="g134"><g
               id="g136" /><g
               transform="translate(-104.771,69.469)"
               id="g138"><g
                 id="g140"><g
                   transform="translate(-37.16,-81.623)"
                   id="g142"><text
                     id="text146"
                     style="font-variant:normal;font-weight:normal;font-size:9.96259975px;font-family:CMMI10;-inkscape-font-specification:CMMI10;writing-mode:lr-tb;fill:#ffffff;fill-opacity:1;fill-rule:nonzero;stroke:none"
                     transform="matrix(1,0,0,-1,37.16,81.623)"><tspan
                       id="tspan144"
                       y="0"
                       x="0">x</tspan></text>
<text
                     id="text150"
                     style="font-variant:normal;font-weight:normal;font-size:6.97380018px;font-family:CMMI7;-inkscape-font-specification:CMMI7;writing-mode:lr-tb;fill:#ffffff;fill-opacity:1;fill-rule:nonzero;stroke:none"
                     transform="matrix(1,0,0,-1,42.854,80.129)"><tspan
                       id="tspan148"
                       y="0"
                       x="0">n</tspan></text>
<g
                     transform="translate(37.16,81.623)"
                     id="g152" /></g></g><g
                 transform="translate(104.771,-69.469)"
                 id="g154" /></g></g><g
             id="g156"><path
               id="path158"
               style="fill:#9e7bff;fill-opacity:1;fill-rule:nonzero;stroke:#9e7bff;stroke-width:0.3985;stroke-linecap:butt;stroke-linejoin:miter;stroke-miterlimit:10;stroke-dasharray:none;stroke-opacity:1"
               d="m -44.7383,0 c 0,6.60281 -5.35249,11.95532 -11.95532,11.95532 -6.60281,0 -11.95532,-5.35251 -11.95532,-11.95532 0,-6.60281 5.35251,-11.95532 11.95532,-11.95532 6.60283,0 11.95532,5.35251 11.95532,11.95532 z" /></g><g
             id="g160"><g
               id="g162" /><g
               transform="translate(-67.35,-0.982)"
               id="g164"><g
                 id="g166"><g
                   transform="translate(-74.581,-11.172)"
                   id="g168"><text
                     id="text172"
                     style="font-variant:normal;font-weight:normal;font-size:9.96259975px;font-family:CMMI10;-inkscape-font-specification:CMMI10;writing-mode:lr-tb;fill:#ffffff;fill-opacity:1;fill-rule:nonzero;stroke:none"
                     transform="matrix(1,0,0,-1,74.581,11.172)"><tspan
                       id="tspan170"
                       y="0"
                       x="0">x</tspan></text>
<text
                     id="text176"
                     style="font-variant:normal;font-weight:normal;font-size:6.97380018px;font-family:CMMI7;-inkscape-font-specification:CMMI7;writing-mode:lr-tb;fill:#ffffff;fill-opacity:1;fill-rule:nonzero;stroke:none"
                     transform="matrix(1,0,0,-1,80.275,9.678)"><tspan
                       id="tspan174"
                       y="0"
                       x="0">n</tspan></text>
<text
                     id="text180"
                     style="font-variant:normal;font-weight:normal;font-size:6.97380018px;font-family:CMSY7;-inkscape-font-specification:CMSY7;writing-mode:lr-tb;fill:#ffffff;fill-opacity:1;fill-rule:nonzero;stroke:none"
                     transform="matrix(1,0,0,-1,85.2,9.678)"><tspan
                       id="tspan178"
                       y="0"
                       x="0">−</tspan></text>
<text
                     id="text184"
                     style="font-variant:normal;font-weight:normal;font-size:6.97380018px;font-family:CMR7;-inkscape-font-specification:CMR7;writing-mode:lr-tb;fill:#ffffff;fill-opacity:1;fill-rule:nonzero;stroke:none"
                     transform="matrix(1,0,0,-1,91.427,9.678)"><tspan
                       id="tspan182"
                       y="0"
                       x="0">2</tspan></text>
<g
                     transform="translate(74.581,11.172)"
                     id="g186" /></g></g><g
                 transform="translate(67.35,0.982)"
                 id="g188" /></g></g><g
             id="g190"><g
               id="g192" /><g
               transform="translate(-32.22,-2.49)"
               id="g194"><g
                 id="g196"><g
                   transform="translate(-109.711,-9.664)"
                   id="g198"><text
                     id="text202"
                     style="font-variant:normal;font-weight:normal;font-size:9.96259975px;font-family:CMMI10;-inkscape-font-specification:CMMI10;writing-mode:lr-tb;fill:#ffffff;fill-opacity:1;fill-rule:nonzero;stroke:none"
                     transform="matrix(1,0,0,-1,109.711,9.664)"><tspan
                       id="tspan200"
                       y="0"
                       x="0">&lt;</tspan></text>
<g
                     transform="translate(109.711,9.664)"
                     id="g204" /></g></g><g
                 transform="translate(32.22,2.49)"
                 id="g206" /></g></g><g
             id="g208"><g
               id="g210" /><g
               transform="translate(-4.151,-0.525)"
               id="g212"><g
                 id="g214"><g
                   transform="translate(-137.78,-11.629)"
                   id="g216"><text
                     id="text220"
                     style="font-variant:normal;font-weight:normal;font-size:9.96259975px;font-family:CMMI10;-inkscape-font-specification:CMMI10;writing-mode:lr-tb;fill:#ffffff;fill-opacity:1;fill-rule:nonzero;stroke:none"
                     transform="matrix(1,0,0,-1,137.78,11.629)"><tspan
                       id="tspan218"
                       y="0"
                       x="0 2.7676103 5.5352206">...</tspan></text>
<g
                     transform="translate(137.78,11.629)"
                     id="g222" /></g></g><g
                 transform="translate(4.151,0.525)"
                 id="g224" /></g></g><g
             id="g226"><g
               id="g228" /><g
               transform="translate(24.473,-2.49)"
               id="g230"><g
                 id="g232"><g
                   transform="translate(-166.404,-9.664)"
                   id="g234"><text
                     id="text238"
                     style="font-variant:normal;font-weight:normal;font-size:9.96259975px;font-family:CMMI10;-inkscape-font-specification:CMMI10;writing-mode:lr-tb;fill:#ffffff;fill-opacity:1;fill-rule:nonzero;stroke:none"
                     transform="matrix(1,0,0,-1,166.404,9.664)"><tspan
                       id="tspan236"
                       y="0"
                       x="0">&lt;</tspan></text>
<g
                     transform="translate(166.404,9.664)"
                     id="g240" /></g></g><g
                 transform="translate(-24.473,2.49)"
                 id="g242" /></g></g><g
             id="g244"><path
               id="path246"
               style="fill:#9e7bff;fill-opacity:1;fill-rule:nonzero;stroke:#9e7bff;stroke-width:0.3985;stroke-linecap:butt;stroke-linejoin:miter;stroke-miterlimit:10;stroke-dasharray:none;stroke-opacity:1"
               d="m 68.64894,0 c 0,6.60281 -5.35251,11.95532 -11.95532,11.95532 C 50.09079,11.95532 44.7383,6.60281 44.7383,0 c 0,-6.60281 5.35249,-11.95532 11.95532,-11.95532 6.60281,0 11.95532,5.35251 11.95532,11.95532 z" /></g><g
             id="g248"><g
               id="g250" /><g
               transform="translate(51.612,-1.397)"
               id="g252"><g
                 id="g254"><g
                   transform="translate(-193.543,-10.757)"
                   id="g256"><text
                     id="text260"
                     style="font-variant:normal;font-weight:normal;font-size:9.96259975px;font-family:CMMI10;-inkscape-font-specification:CMMI10;writing-mode:lr-tb;fill:#ffffff;fill-opacity:1;fill-rule:nonzero;stroke:none"
                     transform="matrix(1,0,0,-1,193.543,10.757)"><tspan
                       id="tspan258"
                       y="0"
                       x="0">x</tspan></text>
<text
                     id="text264"
                     style="font-variant:normal;font-weight:normal;font-size:6.97380018px;font-family:CMR7;-inkscape-font-specification:CMR7;writing-mode:lr-tb;fill:#ffffff;fill-opacity:1;fill-rule:nonzero;stroke:none"
                     transform="matrix(1,0,0,-1,199.237,9.263)"><tspan
                       id="tspan262"
                       y="0"
                       x="0">2</tspan></text>
<g
                     transform="translate(193.543,10.757)"
                     id="g266" /></g></g><g
                 transform="translate(-51.612,1.397)"
                 id="g268" /></g></g><g
             id="g270"><g
               id="g272" /><g
               transform="translate(81.165,-2.49)"
               id="g274"><g
                 id="g276"><g
                   transform="translate(-223.096,-9.664)"
                   id="g278"><text
                     id="text282"
                     style="font-variant:normal;font-weight:normal;font-size:9.96259975px;font-family:CMMI10;-inkscape-font-specification:CMMI10;writing-mode:lr-tb;fill:#ffffff;fill-opacity:1;fill-rule:nonzero;stroke:none"
                     transform="matrix(1,0,0,-1,223.096,9.664)"><tspan
                       id="tspan280"
                       y="0"
                       x="0">&lt;</tspan></text>
<g
                     transform="translate(223.096,9.664)"
                     id="g284" /></g></g><g
                 transform="translate(-81.165,2.49)"
                 id="g286" /></g></g><g
             id="g288"><path
               id="path290"
               style="fill:#9e7bff;fill-opacity:1;fill-rule:nonzero;stroke:#9e7bff;stroke-width:0.3985;stroke-linecap:butt;stroke-linejoin:miter;stroke-miterlimit:10;stroke-dasharray:none;stroke-opacity:1"
               d="m 125.34256,0 c 0,6.60281 -5.35249,11.95532 -11.95532,11.95532 -6.60283,0 -11.95532,-5.35251 -11.95532,-11.95532 0,-6.60281 5.35249,-11.95532 11.95532,-11.95532 6.60283,0 11.95532,5.35251 11.95532,11.95532 z" /></g><g
             id="g292"><g
               id="g294" /><g
               transform="translate(108.305,-1.397)"
               id="g296"><g
                 id="g298"><g
                   transform="translate(-250.236,-10.757)"
                   id="g300"><text
                     id="text304"
                     style="font-variant:normal;font-weight:normal;font-size:9.96259975px;font-family:CMMI10;-inkscape-font-specification:CMMI10;writing-mode:lr-tb;fill:#ffffff;fill-opacity:1;fill-rule:nonzero;stroke:none"
                     transform="matrix(1,0,0,-1,250.236,10.757)"><tspan
                       id="tspan302"
                       y="0"
                       x="0">x</tspan></text>
<text
                     id="text308"
                     style="font-variant:normal;font-weight:normal;font-size:6.97380018px;font-family:CMR7;-inkscape-font-specification:CMR7;writing-mode:lr-tb;fill:#ffffff;fill-opacity:1;fill-rule:nonzero;stroke:none"
                     transform="matrix(1,0,0,-1,255.93,9.263)"><tspan
                       id="tspan306"
                       y="0"
                       x="0">1</tspan></text>
<g
                     transform="translate(250.236,10.757)"
                     id="g310" /></g></g><g
                 transform="translate(-108.305,1.397)"
                 id="g312" /></g></g></g></g></g></g></svg>