<?xml version="1.0" encoding="UTF-8" standalone="no"?>
<svg
   xmlns:dc="http://purl.org/dc/elements/1.1/"
   xmlns:cc="http://creativecommons.org/ns#"
   xmlns:rdf="http://www.w3.org/1999/02/22-rdf-syntax-ns#"
   xmlns:svg="http://www.w3.org/2000/svg"
   xmlns="http://www.w3.org/2000/svg"
   viewBox="0 0 334.77332 136.49867"
   height="136.49867"
   width="334.77332"
   xml:space="preserve"
   id="svg2"
   version="1.1"><metadata
     id="metadata8"><rdf:RDF><cc:Work
         rdf:about=""><dc:format>image/svg+xml</dc:format><dc:type
           rdf:resource="http://purl.org/dc/dcmitype/StillImage" /></cc:Work></rdf:RDF></metadata><defs
     id="defs6" /><g
     transform="matrix(1.3333333,0,0,-1.3333333,0,136.49867)"
     id="g10"><g
       transform="translate(182.233,12.154)"
       id="g12"><g
         id="g14"><g
           id="g16"><path
             id="path18"
             style="fill:none;stroke:#000000;stroke-width:0.3985;stroke-linecap:butt;stroke-linejoin:miter;stroke-miterlimit:10;stroke-dasharray:none;stroke-opacity:1"
             d="m -158.12553,0 c 0,6.60281 -5.3525,11.95532 -11.95533,11.95532 -6.60283,0 -11.95532,-5.35251 -11.95532,-11.95532 0,-6.60281 5.35249,-11.95532 11.95532,-11.95532 6.60283,0 11.95533,5.35251 11.95533,11.95532 z" /><g
             id="g20"><g
               transform="translate(-172.569,-3.317)"
               id="g22"><g
                 id="g24"><g
                   transform="translate(-9.664,-8.837)"
                   id="g26"><text
                     id="text30"
                     style="font-variant:normal;font-weight:normal;font-size:9.96263981px;font-family:LMRoman10;-inkscape-font-specification:LMRoman10-Regular;writing-mode:lr-tb;fill:#000000;fill-opacity:1;fill-rule:nonzero;stroke:none"
                     transform="matrix(1,0,0,-1,9.664,8.837)"><tspan
                       id="tspan28"
                       y="0"
                       x="0">1</tspan></text>
<g
                     transform="translate(9.664,8.837)"
                     id="g32" /></g></g><g
                 transform="translate(172.569,3.317)"
                 id="g34" /></g></g><g
             id="g36"><path
               id="path38"
               style="fill:#609eff;fill-opacity:1;fill-rule:nonzero;stroke:#609eff;stroke-width:0.3985;stroke-linecap:butt;stroke-linejoin:miter;stroke-miterlimit:10;stroke-dasharray:none;stroke-opacity:1"
               d="m -165.09947,28.3468 c 0,2.75118 -2.2302,4.98139 -4.98139,4.98139 -2.75117,0 -4.98138,-2.23021 -4.98138,-4.98139 0,-2.75117 2.23021,-4.98138 4.98138,-4.98138 2.75119,0 4.98139,2.23021 4.98139,4.98138 z" /></g><g
             id="g40"><path
               id="path42"
               style="fill:#609eff;fill-opacity:1;fill-rule:nonzero;stroke:#609eff;stroke-width:0.3985;stroke-linecap:butt;stroke-linejoin:miter;stroke-miterlimit:10;stroke-dasharray:none;stroke-opacity:1"
               d="m -165.09947,42.5202 c 0,2.75118 -2.2302,4.98139 -4.98139,4.98139 -2.75117,0 -4.98138,-2.23021 -4.98138,-4.98139 0,-2.75117 2.23021,-4.98138 4.98138,-4.98138 2.75119,0 4.98139,2.23021 4.98139,4.98138 z" /></g><g
             id="g44"><path
               id="path46"
               style="fill:#609eff;fill-opacity:1;fill-rule:nonzero;stroke:#609eff;stroke-width:0.3985;stroke-linecap:butt;stroke-linejoin:miter;stroke-miterlimit:10;stroke-dasharray:none;stroke-opacity:1"
               d="m -165.09947,56.69362 c 0,2.75118 -2.2302,4.98138 -4.98139,4.98138 -2.75117,0 -4.98138,-2.2302 -4.98138,-4.98138 0,-2.75119 2.23021,-4.98139 4.98138,-4.98139 2.75119,0 4.98139,2.2302 4.98139,4.98139 z" /></g><g
             id="g48"><path
               id="path50"
               style="fill:#609eff;fill-opacity:1;fill-rule:nonzero;stroke:#609eff;stroke-width:0.3985;stroke-linecap:butt;stroke-linejoin:miter;stroke-miterlimit:10;stroke-dasharray:none;stroke-opacity:1"
               d="m -165.09947,70.867 c 0,2.7512 -2.2302,4.98139 -4.98139,4.98139 -2.75117,0 -4.98138,-2.23019 -4.98138,-4.98139 0,-2.75117 2.23021,-4.98138 4.98138,-4.98138 2.75119,0 4.98139,2.23021 4.98139,4.98138 z" /></g><g
             id="g52"><path
               id="path54"
               style="fill:#609eff;fill-opacity:1;fill-rule:nonzero;stroke:#609eff;stroke-width:0.3985;stroke-linecap:butt;stroke-linejoin:miter;stroke-miterlimit:10;stroke-dasharray:none;stroke-opacity:1"
               d="m -165.09947,85.04042 c 0,2.75118 -2.2302,4.98138 -4.98139,4.98138 -2.75117,0 -4.98138,-2.2302 -4.98138,-4.98138 0,-2.75117 2.23021,-4.98138 4.98138,-4.98138 2.75119,0 4.98139,2.23021 4.98139,4.98138 z" /></g><path
             id="path56"
             style="fill:none;stroke:#000000;stroke-width:0.3985;stroke-linecap:butt;stroke-linejoin:miter;stroke-miterlimit:10;stroke-dasharray:none;stroke-opacity:1"
             d="m -101.43192,0 c 0,6.60281 -5.35249,11.95532 -11.95532,11.95532 -6.60283,0 -11.95532,-5.35251 -11.95532,-11.95532 0,-6.60281 5.35249,-11.95532 11.95532,-11.95532 6.60283,0 11.95532,5.35251 11.95532,11.95532 z" /><g
             id="g58"><g
               transform="translate(-115.876,-3.317)"
               id="g60"><g
                 id="g62"><g
                   transform="translate(-66.357,-8.837)"
                   id="g64"><text
                     id="text68"
                     style="font-variant:normal;font-weight:normal;font-size:9.96263981px;font-family:LMRoman10;-inkscape-font-specification:LMRoman10-Regular;writing-mode:lr-tb;fill:#000000;fill-opacity:1;fill-rule:nonzero;stroke:none"
                     transform="matrix(1,0,0,-1,66.357,8.837)"><tspan
                       id="tspan66"
                       y="0"
                       x="0">2</tspan></text>
<g
                     transform="translate(66.357,8.837)"
                     id="g70" /></g></g><g
                 transform="translate(115.876,3.317)"
                 id="g72" /></g></g><g
             id="g74"><path
               id="path76"
               style="fill:#609eff;fill-opacity:1;fill-rule:nonzero;stroke:#609eff;stroke-width:0.3985;stroke-linecap:butt;stroke-linejoin:miter;stroke-miterlimit:10;stroke-dasharray:none;stroke-opacity:1"
               d="m -108.40585,28.3468 c 0,2.75118 -2.2302,4.98139 -4.98139,4.98139 -2.75117,0 -4.98138,-2.23021 -4.98138,-4.98139 0,-2.75117 2.23021,-4.98138 4.98138,-4.98138 2.75119,0 4.98139,2.23021 4.98139,4.98138 z" /></g><g
             id="g78"><path
               id="path80"
               style="fill:#609eff;fill-opacity:1;fill-rule:nonzero;stroke:#609eff;stroke-width:0.3985;stroke-linecap:butt;stroke-linejoin:miter;stroke-miterlimit:10;stroke-dasharray:none;stroke-opacity:1"
               d="m -108.40585,42.5202 c 0,2.75118 -2.2302,4.98139 -4.98139,4.98139 -2.75117,0 -4.98138,-2.23021 -4.98138,-4.98139 0,-2.75117 2.23021,-4.98138 4.98138,-4.98138 2.75119,0 4.98139,2.23021 4.98139,4.98138 z" /></g><g
             id="g82"><path
               id="path84"
               style="fill:#609eff;fill-opacity:1;fill-rule:nonzero;stroke:#609eff;stroke-width:0.3985;stroke-linecap:butt;stroke-linejoin:miter;stroke-miterlimit:10;stroke-dasharray:none;stroke-opacity:1"
               d="m -108.40585,56.69362 c 0,2.75118 -2.2302,4.98138 -4.98139,4.98138 -2.75117,0 -4.98138,-2.2302 -4.98138,-4.98138 0,-2.75119 2.23021,-4.98139 4.98138,-4.98139 2.75119,0 4.98139,2.2302 4.98139,4.98139 z" /></g><g
             id="g86"><path
               id="path88"
               style="fill:#609eff;fill-opacity:1;fill-rule:nonzero;stroke:#609eff;stroke-width:0.3985;stroke-linecap:butt;stroke-linejoin:miter;stroke-miterlimit:10;stroke-dasharray:none;stroke-opacity:1"
               d="m -108.40585,70.867 c 0,2.7512 -2.2302,4.98139 -4.98139,4.98139 -2.75117,0 -4.98138,-2.23019 -4.98138,-4.98139 0,-2.75117 2.23021,-4.98138 4.98138,-4.98138 2.75119,0 4.98139,2.23021 4.98139,4.98138 z" /></g><path
             id="path90"
             style="fill:none;stroke:#000000;stroke-width:0.3985;stroke-linecap:butt;stroke-linejoin:miter;stroke-miterlimit:10;stroke-dasharray:none;stroke-opacity:1"
             d="m -44.7383,0 c 0,6.60281 -5.35249,11.95532 -11.95532,11.95532 -6.60281,0 -11.95532,-5.35251 -11.95532,-11.95532 0,-6.60281 5.35251,-11.95532 11.95532,-11.95532 6.60283,0 11.95532,5.35251 11.95532,11.95532 z" /><g
             id="g92"><g
               transform="translate(-59.183,-3.208)"
               id="g94"><g
                 id="g96"><g
                   transform="translate(-123.05,-8.946)"
                   id="g98"><text
                     id="text102"
                     style="font-variant:normal;font-weight:normal;font-size:9.96263981px;font-family:LMRoman10;-inkscape-font-specification:LMRoman10-Regular;writing-mode:lr-tb;fill:#000000;fill-opacity:1;fill-rule:nonzero;stroke:none"
                     transform="matrix(1,0,0,-1,123.05,8.946)"><tspan
                       id="tspan100"
                       y="0"
                       x="0">3</tspan></text>
<g
                     transform="translate(123.05,8.946)"
                     id="g104" /></g></g><g
                 transform="translate(59.183,3.208)"
                 id="g106" /></g></g><g
             id="g108"><path
               id="path110"
               style="fill:#609eff;fill-opacity:1;fill-rule:nonzero;stroke:#609eff;stroke-width:0.3985;stroke-linecap:butt;stroke-linejoin:miter;stroke-miterlimit:10;stroke-dasharray:none;stroke-opacity:1"
               d="m -51.71223,28.3468 c 0,2.75118 -2.2302,4.98139 -4.98139,4.98139 -2.75118,0 -4.98138,-2.23021 -4.98138,-4.98139 0,-2.75117 2.2302,-4.98138 4.98138,-4.98138 2.75119,0 4.98139,2.23021 4.98139,4.98138 z" /></g><g
             id="g112"><path
               id="path114"
               style="fill:#609eff;fill-opacity:1;fill-rule:nonzero;stroke:#609eff;stroke-width:0.3985;stroke-linecap:butt;stroke-linejoin:miter;stroke-miterlimit:10;stroke-dasharray:none;stroke-opacity:1"
               d="m -51.71223,42.5202 c 0,2.75118 -2.2302,4.98139 -4.98139,4.98139 -2.75118,0 -4.98138,-2.23021 -4.98138,-4.98139 0,-2.75117 2.2302,-4.98138 4.98138,-4.98138 2.75119,0 4.98139,2.23021 4.98139,4.98138 z" /></g><g
             id="g116"><path
               id="path118"
               style="fill:#609eff;fill-opacity:1;fill-rule:nonzero;stroke:#609eff;stroke-width:0.3985;stroke-linecap:butt;stroke-linejoin:miter;stroke-miterlimit:10;stroke-dasharray:none;stroke-opacity:1"
               d="m -51.71223,56.69362 c 0,2.75118 -2.2302,4.98138 -4.98139,4.98138 -2.75118,0 -4.98138,-2.2302 -4.98138,-4.98138 0,-2.75119 2.2302,-4.98139 4.98138,-4.98139 2.75119,0 4.98139,2.2302 4.98139,4.98139 z" /></g><path
             id="path120"
             style="fill:none;stroke:#000000;stroke-width:0.3985;stroke-linecap:butt;stroke-linejoin:miter;stroke-miterlimit:10;stroke-dasharray:none;stroke-opacity:1"
             d="M 11.95532,0 C 11.95532,6.60281 6.60281,11.95532 0,11.95532 -6.60281,11.95532 -11.95532,6.60281 -11.95532,0 c 0,-6.60281 5.35251,-11.95532 11.95532,-11.95532 6.60281,0 11.95532,5.35251 11.95532,11.95532 z" /><g
             id="g122"><g
               transform="translate(-2.491,-3.372)"
               id="g124"><g
                 id="g126"><g
                   transform="translate(-179.742,-8.782)"
                   id="g128"><text
                     id="text132"
                     style="font-variant:normal;font-weight:normal;font-size:9.96263981px;font-family:LMRoman10;-inkscape-font-specification:LMRoman10-Regular;writing-mode:lr-tb;fill:#000000;fill-opacity:1;fill-rule:nonzero;stroke:none"
                     transform="matrix(1,0,0,-1,179.742,8.782)"><tspan
                       id="tspan130"
                       y="0"
                       x="0">4</tspan></text>
<g
                     transform="translate(179.742,8.782)"
                     id="g134" /></g></g><g
                 transform="translate(2.491,3.372)"
                 id="g136" /></g></g><g
             id="g138"><path
               id="path140"
               style="fill:#609eff;fill-opacity:1;fill-rule:nonzero;stroke:#609eff;stroke-width:0.3985;stroke-linecap:butt;stroke-linejoin:miter;stroke-miterlimit:10;stroke-dasharray:none;stroke-opacity:1"
               d="m 4.98138,28.3468 c 0,2.75118 -2.23021,4.98139 -4.98138,4.98139 -2.75117,0 -4.98138,-2.23021 -4.98138,-4.98139 0,-2.75117 2.23021,-4.98138 4.98138,-4.98138 2.75117,0 4.98138,2.23021 4.98138,4.98138 z" /></g><g
             id="g142"><path
               id="path144"
               style="fill:#609eff;fill-opacity:1;fill-rule:nonzero;stroke:#609eff;stroke-width:0.3985;stroke-linecap:butt;stroke-linejoin:miter;stroke-miterlimit:10;stroke-dasharray:none;stroke-opacity:1"
               d="m 4.98138,42.5202 c 0,2.75118 -2.23021,4.98139 -4.98138,4.98139 -2.75117,0 -4.98138,-2.23021 -4.98138,-4.98139 0,-2.75117 2.23021,-4.98138 4.98138,-4.98138 2.75117,0 4.98138,2.23021 4.98138,4.98138 z" /></g><path
             id="path146"
             style="fill:none;stroke:#000000;stroke-width:0.3985;stroke-linecap:butt;stroke-linejoin:miter;stroke-miterlimit:10;stroke-dasharray:none;stroke-opacity:1"
             d="m 68.64894,0 c 0,6.60281 -5.35251,11.95532 -11.95532,11.95532 C 50.09079,11.95532 44.7383,6.60281 44.7383,0 c 0,-6.60281 5.35249,-11.95532 11.95532,-11.95532 6.60281,0 11.95532,5.35251 11.95532,11.95532 z" /><g
             id="g148"><g
               transform="translate(54.202,-3.208)"
               id="g150"><g
                 id="g152"><g
                   transform="translate(-236.435,-8.946)"
                   id="g154"><text
                     id="text158"
                     style="font-variant:normal;font-weight:normal;font-size:9.96263981px;font-family:LMRoman10;-inkscape-font-specification:LMRoman10-Regular;writing-mode:lr-tb;fill:#000000;fill-opacity:1;fill-rule:nonzero;stroke:none"
                     transform="matrix(1,0,0,-1,236.435,8.946)"><tspan
                       id="tspan156"
                       y="0"
                       x="0">5</tspan></text>
<g
                     transform="translate(236.435,8.946)"
                     id="g160" /></g></g><g
                 transform="translate(-54.202,3.208)"
                 id="g162" /></g></g><g
             id="g164"><path
               id="path166"
               style="fill:#609eff;fill-opacity:1;fill-rule:nonzero;stroke:#609eff;stroke-width:0.3985;stroke-linecap:butt;stroke-linejoin:miter;stroke-miterlimit:10;stroke-dasharray:none;stroke-opacity:1"
               d="m 61.675,28.3468 c 0,2.75118 -2.2302,4.98139 -4.98138,4.98139 -2.75119,0 -4.98139,-2.23021 -4.98139,-4.98139 0,-2.75117 2.2302,-4.98138 4.98139,-4.98138 2.75118,0 4.98138,2.23021 4.98138,4.98138 z" /></g></g></g></g></g></svg>