<?xml version="1.0" encoding="UTF-8" standalone="no"?>
<svg
   xmlns:dc="http://purl.org/dc/elements/1.1/"
   xmlns:cc="http://creativecommons.org/ns#"
   xmlns:rdf="http://www.w3.org/1999/02/22-rdf-syntax-ns#"
   xmlns:svg="http://www.w3.org/2000/svg"
   xmlns="http://www.w3.org/2000/svg"
   viewBox="0 0 334.77332 136.49867"
   height="136.49867"
   width="334.77332"
   xml:space="preserve"
   id="svg2"
   version="1.1"><metadata
     id="metadata8"><rdf:RDF><cc:Work
         rdf:about=""><dc:format>image/svg+xml</dc:format><dc:type
           rdf:resource="http://purl.org/dc/dcmitype/StillImage" /></cc:Work></rdf:RDF></metadata><defs
     id="defs6" /><g
     transform="matrix(1.3333333,0,0,-1.3333333,0,136.49867)"
     id="g10"><g
       transform="translate(182.233,12.154)"
       id="g12"><g
         id="g14"><g
           id="g16"><g
             id="g18"><path
               id="path20"
               style="fill:none;stroke:#ffffff;stroke-width:0.3985;stroke-linecap:butt;stroke-linejoin:miter;stroke-miterlimit:10;stroke-dasharray:none;stroke-opacity:1"
               d="m -158.12553,0 c 0,6.60281 -5.3525,11.95532 -11.95533,11.95532 -6.60283,0 -11.95532,-5.35251 -11.95532,-11.95532 0,-6.60281 5.35249,-11.95532 11.95532,-11.95532 6.60283,0 11.95533,5.35251 11.95533,11.95532 z" /></g><g
             id="g22"><g
               id="g24" /><g
               transform="translate(-172.569,-3.21)"
               id="g26"><g
                 id="g28"><g
                   transform="translate(-9.664,-8.944)"
                   id="g30"><text
                     id="text34"
                     style="font-variant:normal;font-weight:normal;font-size:9.96259975px;font-family:CMR10;-inkscape-font-specification:CMR10;writing-mode:lr-tb;fill:#ffffff;fill-opacity:1;fill-rule:nonzero;stroke:none"
                     transform="matrix(1,0,0,-1,9.664,8.944)"><tspan
                       id="tspan32"
                       y="0"
                       x="0">1</tspan></text>
<g
                     transform="translate(9.664,8.944)"
                     id="g36" /></g></g><g
                 transform="translate(172.569,3.21)"
                 id="g38" /></g></g><g
             id="g40"><path
               id="path42"
               style="fill:#9e7bff;fill-opacity:1;fill-rule:nonzero;stroke:#9e7bff;stroke-width:0.3985;stroke-linecap:butt;stroke-linejoin:miter;stroke-miterlimit:10;stroke-dasharray:none;stroke-opacity:1"
               d="m -165.09947,28.3468 c 0,2.75118 -2.2302,4.98139 -4.98139,4.98139 -2.75117,0 -4.98138,-2.23021 -4.98138,-4.98139 0,-2.75117 2.23021,-4.98138 4.98138,-4.98138 2.75119,0 4.98139,2.23021 4.98139,4.98138 z" /></g><g
             id="g44"><path
               id="path46"
               style="fill:#9e7bff;fill-opacity:1;fill-rule:nonzero;stroke:#9e7bff;stroke-width:0.3985;stroke-linecap:butt;stroke-linejoin:miter;stroke-miterlimit:10;stroke-dasharray:none;stroke-opacity:1"
               d="m -165.09947,42.5202 c 0,2.75118 -2.2302,4.98139 -4.98139,4.98139 -2.75117,0 -4.98138,-2.23021 -4.98138,-4.98139 0,-2.75117 2.23021,-4.98138 4.98138,-4.98138 2.75119,0 4.98139,2.23021 4.98139,4.98138 z" /></g><g
             id="g48"><path
               id="path50"
               style="fill:#9e7bff;fill-opacity:1;fill-rule:nonzero;stroke:#9e7bff;stroke-width:0.3985;stroke-linecap:butt;stroke-linejoin:miter;stroke-miterlimit:10;stroke-dasharray:none;stroke-opacity:1"
               d="m -165.09947,56.69362 c 0,2.75118 -2.2302,4.98138 -4.98139,4.98138 -2.75117,0 -4.98138,-2.2302 -4.98138,-4.98138 0,-2.75119 2.23021,-4.98139 4.98138,-4.98139 2.75119,0 4.98139,2.2302 4.98139,4.98139 z" /></g><g
             id="g52"><path
               id="path54"
               style="fill:#9e7bff;fill-opacity:1;fill-rule:nonzero;stroke:#9e7bff;stroke-width:0.3985;stroke-linecap:butt;stroke-linejoin:miter;stroke-miterlimit:10;stroke-dasharray:none;stroke-opacity:1"
               d="m -165.09947,70.867 c 0,2.7512 -2.2302,4.98139 -4.98139,4.98139 -2.75117,0 -4.98138,-2.23019 -4.98138,-4.98139 0,-2.75117 2.23021,-4.98138 4.98138,-4.98138 2.75119,0 4.98139,2.23021 4.98139,4.98138 z" /></g><g
             id="g56"><path
               id="path58"
               style="fill:#9e7bff;fill-opacity:1;fill-rule:nonzero;stroke:#9e7bff;stroke-width:0.3985;stroke-linecap:butt;stroke-linejoin:miter;stroke-miterlimit:10;stroke-dasharray:none;stroke-opacity:1"
               d="m -165.09947,85.04042 c 0,2.75118 -2.2302,4.98138 -4.98139,4.98138 -2.75117,0 -4.98138,-2.2302 -4.98138,-4.98138 0,-2.75117 2.23021,-4.98138 4.98138,-4.98138 2.75119,0 4.98139,2.23021 4.98139,4.98138 z" /></g><g
             id="g60"><path
               id="path62"
               style="fill:none;stroke:#ffffff;stroke-width:0.3985;stroke-linecap:butt;stroke-linejoin:miter;stroke-miterlimit:10;stroke-dasharray:none;stroke-opacity:1"
               d="m -101.43192,0 c 0,6.60281 -5.35249,11.95532 -11.95532,11.95532 -6.60283,0 -11.95532,-5.35251 -11.95532,-11.95532 0,-6.60281 5.35249,-11.95532 11.95532,-11.95532 6.60283,0 11.95532,5.35251 11.95532,11.95532 z" /></g><g
             id="g64"><g
               id="g66" /><g
               transform="translate(-115.876,-3.21)"
               id="g68"><g
                 id="g70"><g
                   transform="translate(-66.357,-8.944)"
                   id="g72"><text
                     id="text76"
                     style="font-variant:normal;font-weight:normal;font-size:9.96259975px;font-family:CMR10;-inkscape-font-specification:CMR10;writing-mode:lr-tb;fill:#ffffff;fill-opacity:1;fill-rule:nonzero;stroke:none"
                     transform="matrix(1,0,0,-1,66.357,8.944)"><tspan
                       id="tspan74"
                       y="0"
                       x="0">2</tspan></text>
<g
                     transform="translate(66.357,8.944)"
                     id="g78" /></g></g><g
                 transform="translate(115.876,3.21)"
                 id="g80" /></g></g><g
             id="g82"><path
               id="path84"
               style="fill:#9e7bff;fill-opacity:1;fill-rule:nonzero;stroke:#9e7bff;stroke-width:0.3985;stroke-linecap:butt;stroke-linejoin:miter;stroke-miterlimit:10;stroke-dasharray:none;stroke-opacity:1"
               d="m -108.40585,28.3468 c 0,2.75118 -2.2302,4.98139 -4.98139,4.98139 -2.75117,0 -4.98138,-2.23021 -4.98138,-4.98139 0,-2.75117 2.23021,-4.98138 4.98138,-4.98138 2.75119,0 4.98139,2.23021 4.98139,4.98138 z" /></g><g
             id="g86"><path
               id="path88"
               style="fill:#9e7bff;fill-opacity:1;fill-rule:nonzero;stroke:#9e7bff;stroke-width:0.3985;stroke-linecap:butt;stroke-linejoin:miter;stroke-miterlimit:10;stroke-dasharray:none;stroke-opacity:1"
               d="m -108.40585,42.5202 c 0,2.75118 -2.2302,4.98139 -4.98139,4.98139 -2.75117,0 -4.98138,-2.23021 -4.98138,-4.98139 0,-2.75117 2.23021,-4.98138 4.98138,-4.98138 2.75119,0 4.98139,2.23021 4.98139,4.98138 z" /></g><g
             id="g90"><path
               id="path92"
               style="fill:#9e7bff;fill-opacity:1;fill-rule:nonzero;stroke:#9e7bff;stroke-width:0.3985;stroke-linecap:butt;stroke-linejoin:miter;stroke-miterlimit:10;stroke-dasharray:none;stroke-opacity:1"
               d="m -108.40585,56.69362 c 0,2.75118 -2.2302,4.98138 -4.98139,4.98138 -2.75117,0 -4.98138,-2.2302 -4.98138,-4.98138 0,-2.75119 2.23021,-4.98139 4.98138,-4.98139 2.75119,0 4.98139,2.2302 4.98139,4.98139 z" /></g><g
             id="g94"><path
               id="path96"
               style="fill:#9e7bff;fill-opacity:1;fill-rule:nonzero;stroke:#9e7bff;stroke-width:0.3985;stroke-linecap:butt;stroke-linejoin:miter;stroke-miterlimit:10;stroke-dasharray:none;stroke-opacity:1"
               d="m -108.40585,70.867 c 0,2.7512 -2.2302,4.98139 -4.98139,4.98139 -2.75117,0 -4.98138,-2.23019 -4.98138,-4.98139 0,-2.75117 2.23021,-4.98138 4.98138,-4.98138 2.75119,0 4.98139,2.23021 4.98139,4.98138 z" /></g><g
             id="g98"><path
               id="path100"
               style="fill:none;stroke:#ffffff;stroke-width:0.3985;stroke-linecap:butt;stroke-linejoin:miter;stroke-miterlimit:10;stroke-dasharray:none;stroke-opacity:1"
               d="m -44.7383,0 c 0,6.60281 -5.35249,11.95532 -11.95532,11.95532 -6.60281,0 -11.95532,-5.35251 -11.95532,-11.95532 0,-6.60281 5.35251,-11.95532 11.95532,-11.95532 6.60283,0 11.95532,5.35251 11.95532,11.95532 z" /></g><g
             id="g102"><g
               id="g104" /><g
               transform="translate(-59.183,-3.21)"
               id="g106"><g
                 id="g108"><g
                   transform="translate(-123.05,-8.944)"
                   id="g110"><text
                     id="text114"
                     style="font-variant:normal;font-weight:normal;font-size:9.96259975px;font-family:CMR10;-inkscape-font-specification:CMR10;writing-mode:lr-tb;fill:#ffffff;fill-opacity:1;fill-rule:nonzero;stroke:none"
                     transform="matrix(1,0,0,-1,123.05,8.944)"><tspan
                       id="tspan112"
                       y="0"
                       x="0">3</tspan></text>
<g
                     transform="translate(123.05,8.944)"
                     id="g116" /></g></g><g
                 transform="translate(59.183,3.21)"
                 id="g118" /></g></g><g
             id="g120"><path
               id="path122"
               style="fill:#9e7bff;fill-opacity:1;fill-rule:nonzero;stroke:#9e7bff;stroke-width:0.3985;stroke-linecap:butt;stroke-linejoin:miter;stroke-miterlimit:10;stroke-dasharray:none;stroke-opacity:1"
               d="m -51.71223,28.3468 c 0,2.75118 -2.2302,4.98139 -4.98139,4.98139 -2.75118,0 -4.98138,-2.23021 -4.98138,-4.98139 0,-2.75117 2.2302,-4.98138 4.98138,-4.98138 2.75119,0 4.98139,2.23021 4.98139,4.98138 z" /></g><g
             id="g124"><path
               id="path126"
               style="fill:#9e7bff;fill-opacity:1;fill-rule:nonzero;stroke:#9e7bff;stroke-width:0.3985;stroke-linecap:butt;stroke-linejoin:miter;stroke-miterlimit:10;stroke-dasharray:none;stroke-opacity:1"
               d="m -51.71223,42.5202 c 0,2.75118 -2.2302,4.98139 -4.98139,4.98139 -2.75118,0 -4.98138,-2.23021 -4.98138,-4.98139 0,-2.75117 2.2302,-4.98138 4.98138,-4.98138 2.75119,0 4.98139,2.23021 4.98139,4.98138 z" /></g><g
             id="g128"><path
               id="path130"
               style="fill:#9e7bff;fill-opacity:1;fill-rule:nonzero;stroke:#9e7bff;stroke-width:0.3985;stroke-linecap:butt;stroke-linejoin:miter;stroke-miterlimit:10;stroke-dasharray:none;stroke-opacity:1"
               d="m -51.71223,56.69362 c 0,2.75118 -2.2302,4.98138 -4.98139,4.98138 -2.75118,0 -4.98138,-2.2302 -4.98138,-4.98138 0,-2.75119 2.2302,-4.98139 4.98138,-4.98139 2.75119,0 4.98139,2.2302 4.98139,4.98139 z" /></g><g
             id="g132"><path
               id="path134"
               style="fill:none;stroke:#ffffff;stroke-width:0.3985;stroke-linecap:butt;stroke-linejoin:miter;stroke-miterlimit:10;stroke-dasharray:none;stroke-opacity:1"
               d="M 11.95532,0 C 11.95532,6.60281 6.60281,11.95532 0,11.95532 -6.60281,11.95532 -11.95532,6.60281 -11.95532,0 c 0,-6.60281 5.35251,-11.95532 11.95532,-11.95532 6.60281,0 11.95532,5.35251 11.95532,11.95532 z" /></g><g
             id="g136"><g
               id="g138" /><g
               transform="translate(-2.491,-3.21)"
               id="g140"><g
                 id="g142"><g
                   transform="translate(-179.742,-8.944)"
                   id="g144"><text
                     id="text148"
                     style="font-variant:normal;font-weight:normal;font-size:9.96259975px;font-family:CMR10;-inkscape-font-specification:CMR10;writing-mode:lr-tb;fill:#ffffff;fill-opacity:1;fill-rule:nonzero;stroke:none"
                     transform="matrix(1,0,0,-1,179.742,8.944)"><tspan
                       id="tspan146"
                       y="0"
                       x="0">4</tspan></text>
<g
                     transform="translate(179.742,8.944)"
                     id="g150" /></g></g><g
                 transform="translate(2.491,3.21)"
                 id="g152" /></g></g><g
             id="g154"><path
               id="path156"
               style="fill:#9e7bff;fill-opacity:1;fill-rule:nonzero;stroke:#9e7bff;stroke-width:0.3985;stroke-linecap:butt;stroke-linejoin:miter;stroke-miterlimit:10;stroke-dasharray:none;stroke-opacity:1"
               d="m 4.98138,28.3468 c 0,2.75118 -2.23021,4.98139 -4.98138,4.98139 -2.75117,0 -4.98138,-2.23021 -4.98138,-4.98139 0,-2.75117 2.23021,-4.98138 4.98138,-4.98138 2.75117,0 4.98138,2.23021 4.98138,4.98138 z" /></g><g
             id="g158"><path
               id="path160"
               style="fill:#9e7bff;fill-opacity:1;fill-rule:nonzero;stroke:#9e7bff;stroke-width:0.3985;stroke-linecap:butt;stroke-linejoin:miter;stroke-miterlimit:10;stroke-dasharray:none;stroke-opacity:1"
               d="m 4.98138,42.5202 c 0,2.75118 -2.23021,4.98139 -4.98138,4.98139 -2.75117,0 -4.98138,-2.23021 -4.98138,-4.98139 0,-2.75117 2.23021,-4.98138 4.98138,-4.98138 2.75117,0 4.98138,2.23021 4.98138,4.98138 z" /></g><g
             id="g162"><path
               id="path164"
               style="fill:none;stroke:#ffffff;stroke-width:0.3985;stroke-linecap:butt;stroke-linejoin:miter;stroke-miterlimit:10;stroke-dasharray:none;stroke-opacity:1"
               d="m 68.64894,0 c 0,6.60281 -5.35251,11.95532 -11.95532,11.95532 C 50.09079,11.95532 44.7383,6.60281 44.7383,0 c 0,-6.60281 5.35249,-11.95532 11.95532,-11.95532 6.60281,0 11.95532,5.35251 11.95532,11.95532 z" /></g><g
             id="g166"><g
               id="g168" /><g
               transform="translate(54.202,-3.21)"
               id="g170"><g
                 id="g172"><g
                   transform="translate(-236.435,-8.944)"
                   id="g174"><text
                     id="text178"
                     style="font-variant:normal;font-weight:normal;font-size:9.96259975px;font-family:CMR10;-inkscape-font-specification:CMR10;writing-mode:lr-tb;fill:#ffffff;fill-opacity:1;fill-rule:nonzero;stroke:none"
                     transform="matrix(1,0,0,-1,236.435,8.944)"><tspan
                       id="tspan176"
                       y="0"
                       x="0">5</tspan></text>
<g
                     transform="translate(236.435,8.944)"
                     id="g180" /></g></g><g
                 transform="translate(-54.202,3.21)"
                 id="g182" /></g></g><g
             id="g184"><path
               id="path186"
               style="fill:#9e7bff;fill-opacity:1;fill-rule:nonzero;stroke:#9e7bff;stroke-width:0.3985;stroke-linecap:butt;stroke-linejoin:miter;stroke-miterlimit:10;stroke-dasharray:none;stroke-opacity:1"
               d="m 61.675,28.3468 c 0,2.75118 -2.2302,4.98139 -4.98138,4.98139 -2.75119,0 -4.98139,-2.23021 -4.98139,-4.98139 0,-2.75117 2.2302,-4.98138 4.98139,-4.98138 2.75118,0 4.98138,2.23021 4.98138,4.98138 z" /></g></g></g></g></g></svg>