<?xml version="1.0" encoding="UTF-8" standalone="no"?>
<svg
   xmlns:dc="http://purl.org/dc/elements/1.1/"
   xmlns:cc="http://creativecommons.org/ns#"
   xmlns:rdf="http://www.w3.org/1999/02/22-rdf-syntax-ns#"
   xmlns:svg="http://www.w3.org/2000/svg"
   xmlns="http://www.w3.org/2000/svg"
   viewBox="0 0 391.76801 121.58667"
   height="121.58667"
   width="391.76801"
   xml:space="preserve"
   id="svg2"
   version="1.1"><metadata
     id="metadata8"><rdf:RDF><cc:Work
         rdf:about=""><dc:format>image/svg+xml</dc:format><dc:type
           rdf:resource="http://purl.org/dc/dcmitype/StillImage" /></cc:Work></rdf:RDF></metadata><defs
     id="defs6" /><g
     transform="matrix(1.3333333,0,0,-1.3333333,0,121.58667)"
     id="g10"><g
       transform="translate(146.913,12.154)"
       id="g12"><g
         id="g14"><g
           id="g16"><g
             id="g18"><path
               id="path20"
               style="fill:none;stroke:#ffffff;stroke-width:0.3985;stroke-linecap:butt;stroke-linejoin:miter;stroke-miterlimit:10;stroke-dasharray:none;stroke-opacity:1"
               d="m -136.75266,0 c 0,2.75117 -2.2302,4.98138 -4.98138,4.98138 -2.75117,0 -4.98138,-2.23021 -4.98138,-4.98138 0,-2.75117 2.23021,-4.98138 4.98138,-4.98138 2.75118,0 4.98138,2.23021 4.98138,4.98138 z" /></g><g
             id="g22"><path
               id="path24"
               style="fill:none;stroke:#ffffff;stroke-width:0.3985;stroke-linecap:butt;stroke-linejoin:miter;stroke-miterlimit:10;stroke-dasharray:none;stroke-opacity:1"
               d="m 146.71542,0 c 0,2.75117 -2.23021,4.98138 -4.98138,4.98138 -2.75118,0 -4.98138,-2.23021 -4.98138,-4.98138 0,-2.75117 2.2302,-4.98138 4.98138,-4.98138 2.75117,0 4.98138,2.23021 4.98138,4.98138 z" /></g><g
             id="g26"><path
               id="path28"
               style="fill:#609eff;fill-opacity:1;fill-rule:nonzero;stroke:#609eff;stroke-width:0.3985;stroke-linecap:butt;stroke-linejoin:miter;stroke-miterlimit:10;stroke-dasharray:none;stroke-opacity:1"
               d="m -101.43192,0 c 0,6.60281 -5.35249,11.95532 -11.95532,11.95532 -6.60283,0 -11.95532,-5.35251 -11.95532,-11.95532 0,-6.60281 5.35249,-11.95532 11.95532,-11.95532 6.60283,0 11.95532,5.35251 11.95532,11.95532 z" /></g><g
             id="g30"><g
               transform="translate(-124.043,-0.982)"
               id="g32"><g
                 id="g34"><g
                   transform="translate(-22.87,-11.172)"
                   id="g36"><text
                     id="text40"
                     style="font-variant:normal;font-weight:normal;font-size:9.96263981px;font-family:CMMI10;-inkscape-font-specification:CMMI10;writing-mode:lr-tb;fill:#000000;fill-opacity:1;fill-rule:nonzero;stroke:none"
                     transform="matrix(1,0,0,-1,22.87,11.172)"><tspan
                       id="tspan38"
                       y="0"
                       x="0">x</tspan></text>
<text
                     id="text44"
                     style="font-variant:normal;font-weight:normal;font-size:6.97384977px;font-family:CMMI7;-inkscape-font-specification:CMMI7;writing-mode:lr-tb;fill:#000000;fill-opacity:1;fill-rule:nonzero;stroke:none"
                     transform="matrix(1,0,0,-1,28.564,9.678)"><tspan
                       id="tspan42"
                       y="0"
                       x="0">n</tspan></text>
<text
                     id="text48"
                     style="font-variant:normal;font-weight:normal;font-size:6.97384977px;font-family:CMSY7;-inkscape-font-specification:CMSY7;writing-mode:lr-tb;fill:#000000;fill-opacity:1;fill-rule:nonzero;stroke:none"
                     transform="matrix(1,0,0,-1,33.488,9.678)"><tspan
                       id="tspan46"
                       y="0"
                       x="0">−</tspan></text>
<text
                     id="text52"
                     style="font-variant:normal;font-weight:normal;font-size:6.97384977px;font-family:CMR7;-inkscape-font-specification:CMR7;writing-mode:lr-tb;fill:#000000;fill-opacity:1;fill-rule:nonzero;stroke:none"
                     transform="matrix(1,0,0,-1,39.715,9.678)"><tspan
                       id="tspan50"
                       y="0"
                       x="0">1</tspan></text>
<g
                     transform="translate(22.87,11.172)"
                     id="g54" /></g></g><g
                 transform="translate(124.043,0.982)"
                 id="g56" /></g></g><g
             id="g58"><g
               transform="translate(-88.914,-2.49)"
               id="g60"><g
                 id="g62"><g
                   transform="translate(-57.999,-9.664)"
                   id="g64"><text
                     id="text68"
                     style="font-variant:normal;font-weight:normal;font-size:9.96263981px;font-family:CMMI10;-inkscape-font-specification:CMMI10;writing-mode:lr-tb;fill:#000000;fill-opacity:1;fill-rule:nonzero;stroke:none"
                     transform="matrix(1,0,0,-1,57.999,9.664)"><tspan
                       id="tspan66"
                       y="0"
                       x="0">&lt;</tspan></text>
<g
                     transform="translate(57.999,9.664)"
                     id="g70" /></g></g><g
                 transform="translate(88.914,2.49)"
                 id="g72" /></g></g><path
             id="path74"
             style="fill:none;stroke:#000000;stroke-width:0.3985;stroke-linecap:butt;stroke-linejoin:miter;stroke-miterlimit:10;stroke-dasharray:none;stroke-opacity:1"
             d="M -99.21382,70.867 V 44.6462 c 0,-1.17417 -0.95183,-2.126 -2.12599,-2.126 h -38.26824 c -1.17416,0 -2.12599,-0.95183 -2.12599,-2.126 V 14.63167" /><g
             transform="rotate(-90,-63.551185,78.182855)"
             id="g76"><g
               id="g78"><path
                 id="path80"
                 style="fill:none;stroke:#000000;stroke-width:0.31878999;stroke-linecap:round;stroke-linejoin:round;stroke-miterlimit:10;stroke-dasharray:none;stroke-opacity:1"
                 d="M -1.19551,1.59401 C -1.09587,0.99626 0,0.09961 0.29886,0 0,-0.09961 -1.09587,-0.99626 -1.19551,-1.59401" /></g></g><path
             id="path82"
             style="fill:none;stroke:#000000;stroke-width:0.3985;stroke-linecap:butt;stroke-linejoin:miter;stroke-miterlimit:10;stroke-dasharray:none;stroke-opacity:1"
             d="M -99.21382,70.867 V 44.6462 c 0,-1.17417 0.95182,-2.126 2.12599,-2.126 h 9.92142 c 1.17416,0 2.12599,-0.95183 2.12599,-2.126 V 14.63167" /><g
             transform="rotate(-90,-35.204375,49.836045)"
             id="g84"><g
               id="g86"><path
                 id="path88"
                 style="fill:none;stroke:#000000;stroke-width:0.31878999;stroke-linecap:round;stroke-linejoin:round;stroke-miterlimit:10;stroke-dasharray:none;stroke-opacity:1"
                 d="M -1.19551,1.59401 C -1.09587,0.99626 0,0.09961 0.29886,0 0,-0.09961 -1.09587,-0.99626 -1.19551,-1.59401" /></g></g><path
             id="path90"
             style="fill:none;stroke:#000000;stroke-width:0.3985;stroke-linecap:butt;stroke-linejoin:miter;stroke-miterlimit:10;stroke-dasharray:none;stroke-opacity:1"
             d="M -99.21382,70.867 V 44.6462 c 0,-1.17417 0.95182,-2.126 2.12599,-2.126 h 66.61503 c 1.17417,0 2.126,-0.95183 2.126,-2.126 V 14.63167" /><g
             transform="rotate(-90,-6.857565,21.489235)"
             id="g92"><g
               id="g94"><path
                 id="path96"
                 style="fill:none;stroke:#000000;stroke-width:0.31878999;stroke-linecap:round;stroke-linejoin:round;stroke-miterlimit:10;stroke-dasharray:none;stroke-opacity:1"
                 d="M -1.19551,1.59401 C -1.09587,0.99626 0,0.09961 0.29886,0 0,-0.09961 -1.09587,-0.99626 -1.19551,-1.59401" /></g></g><path
             id="path98"
             style="fill:none;stroke:#000000;stroke-width:0.3985;stroke-linecap:butt;stroke-linejoin:miter;stroke-miterlimit:10;stroke-dasharray:none;stroke-opacity:1"
             d="M -99.21382,70.867 V 44.6462 c 0,-1.17417 0.95182,-2.126 2.12599,-2.126 H 26.22081 c 1.17416,0 2.12599,-0.95183 2.12599,-2.126 V 14.63167" /><g
             transform="rotate(-90,21.489235,-6.857565)"
             id="g100"><g
               id="g102"><path
                 id="path104"
                 style="fill:none;stroke:#000000;stroke-width:0.31878999;stroke-linecap:round;stroke-linejoin:round;stroke-miterlimit:10;stroke-dasharray:none;stroke-opacity:1"
                 d="M -1.19551,1.59401 C -1.09587,0.99626 0,0.09961 0.29886,0 0,-0.09961 -1.09587,-0.99626 -1.19551,-1.59401" /></g></g><path
             id="path106"
             style="fill:none;stroke:#000000;stroke-width:0.3985;stroke-linecap:butt;stroke-linejoin:miter;stroke-miterlimit:10;stroke-dasharray:none;stroke-opacity:1"
             d="M -99.21382,70.867 V 44.6462 c 0,-1.17417 0.95182,-2.126 2.12599,-2.126 H 82.91443 c 1.17417,0 2.12599,-0.95183 2.12599,-2.126 V 14.63167" /><g
             transform="rotate(-90,49.836045,-35.204375)"
             id="g108"><g
               id="g110"><path
                 id="path112"
                 style="fill:none;stroke:#000000;stroke-width:0.31878999;stroke-linecap:round;stroke-linejoin:round;stroke-miterlimit:10;stroke-dasharray:none;stroke-opacity:1"
                 d="M -1.19551,1.59401 C -1.09587,0.99626 0,0.09961 0.29886,0 0,-0.09961 -1.09587,-0.99626 -1.19551,-1.59401" /></g></g><path
             id="path114"
             style="fill:none;stroke:#000000;stroke-width:0.3985;stroke-linecap:butt;stroke-linejoin:miter;stroke-miterlimit:10;stroke-dasharray:none;stroke-opacity:1"
             d="M -99.21382,70.867 V 44.6462 c 0,-1.17417 0.95182,-2.126 2.12599,-2.126 h 236.69588 c 1.17416,0 2.12599,-0.95183 2.12599,-2.126 V 14.63167" /><g
             transform="rotate(-90,78.182855,-63.551185)"
             id="g116"><g
               id="g118"><path
                 id="path120"
                 style="fill:none;stroke:#000000;stroke-width:0.31878999;stroke-linecap:round;stroke-linejoin:round;stroke-miterlimit:10;stroke-dasharray:none;stroke-opacity:1"
                 d="M -1.19551,1.59401 C -1.09587,0.99626 0,0.09961 0.29886,0 0,-0.09961 -1.09587,-0.99626 -1.19551,-1.59401" /></g></g><g
             id="g122"><path
               id="path124"
               style="fill:#609eff;fill-opacity:1;fill-rule:nonzero;stroke:#609eff;stroke-width:0.3985;stroke-linecap:butt;stroke-linejoin:miter;stroke-miterlimit:10;stroke-dasharray:none;stroke-opacity:1"
               d="m -91.2436,70.867 c 0,4.40189 -3.56834,7.97022 -7.97022,7.97022 -4.40188,0 -7.97022,-3.56833 -7.97022,-7.97022 0,-4.40188 3.56834,-7.97021 7.97022,-7.97021 4.40188,0 7.97022,3.56833 7.97022,7.97021 z" /></g><g
             id="g126"><g
               transform="translate(-104.771,69.469)"
               id="g128"><g
                 id="g130"><g
                   transform="translate(-42.142,-81.623)"
                   id="g132"><text
                     id="text136"
                     style="font-variant:normal;font-weight:normal;font-size:9.96263981px;font-family:CMMI10;-inkscape-font-specification:CMMI10;writing-mode:lr-tb;fill:#000000;fill-opacity:1;fill-rule:nonzero;stroke:none"
                     transform="matrix(1,0,0,-1,42.142,81.623)"><tspan
                       id="tspan134"
                       y="0"
                       x="0">x</tspan></text>
<text
                     id="text140"
                     style="font-variant:normal;font-weight:normal;font-size:6.97384977px;font-family:CMMI7;-inkscape-font-specification:CMMI7;writing-mode:lr-tb;fill:#000000;fill-opacity:1;fill-rule:nonzero;stroke:none"
                     transform="matrix(1,0,0,-1,47.836,80.129)"><tspan
                       id="tspan138"
                       y="0"
                       x="0">n</tspan></text>
<g
                     transform="translate(42.142,81.623)"
                     id="g142" /></g></g><g
                 transform="translate(104.771,-69.469)"
                 id="g144" /></g></g><g
             id="g146"><path
               id="path148"
               style="fill:#609eff;fill-opacity:1;fill-rule:nonzero;stroke:#609eff;stroke-width:0.3985;stroke-linecap:butt;stroke-linejoin:miter;stroke-miterlimit:10;stroke-dasharray:none;stroke-opacity:1"
               d="m -44.7383,0 c 0,6.60281 -5.35249,11.95532 -11.95532,11.95532 -6.60281,0 -11.95532,-5.35251 -11.95532,-11.95532 0,-6.60281 5.35251,-11.95532 11.95532,-11.95532 6.60283,0 11.95532,5.35251 11.95532,11.95532 z" /></g><g
             id="g150"><g
               transform="translate(-67.351,-0.982)"
               id="g152"><g
                 id="g154"><g
                   transform="translate(-79.562,-11.172)"
                   id="g156"><text
                     id="text160"
                     style="font-variant:normal;font-weight:normal;font-size:9.96263981px;font-family:CMMI10;-inkscape-font-specification:CMMI10;writing-mode:lr-tb;fill:#000000;fill-opacity:1;fill-rule:nonzero;stroke:none"
                     transform="matrix(1,0,0,-1,79.562,11.172)"><tspan
                       id="tspan158"
                       y="0"
                       x="0">x</tspan></text>
<text
                     id="text164"
                     style="font-variant:normal;font-weight:normal;font-size:6.97384977px;font-family:CMMI7;-inkscape-font-specification:CMMI7;writing-mode:lr-tb;fill:#000000;fill-opacity:1;fill-rule:nonzero;stroke:none"
                     transform="matrix(1,0,0,-1,85.256,9.678)"><tspan
                       id="tspan162"
                       y="0"
                       x="0">n</tspan></text>
<text
                     id="text168"
                     style="font-variant:normal;font-weight:normal;font-size:6.97384977px;font-family:CMSY7;-inkscape-font-specification:CMSY7;writing-mode:lr-tb;fill:#000000;fill-opacity:1;fill-rule:nonzero;stroke:none"
                     transform="matrix(1,0,0,-1,90.181,9.678)"><tspan
                       id="tspan166"
                       y="0"
                       x="0">−</tspan></text>
<text
                     id="text172"
                     style="font-variant:normal;font-weight:normal;font-size:6.97384977px;font-family:CMR7;-inkscape-font-specification:CMR7;writing-mode:lr-tb;fill:#000000;fill-opacity:1;fill-rule:nonzero;stroke:none"
                     transform="matrix(1,0,0,-1,96.408,9.678)"><tspan
                       id="tspan170"
                       y="0"
                       x="0">2</tspan></text>
<g
                     transform="translate(79.562,11.172)"
                     id="g174" /></g></g><g
                 transform="translate(67.351,0.982)"
                 id="g176" /></g></g><g
             id="g178"><g
               transform="translate(-32.221,-2.49)"
               id="g180"><g
                 id="g182"><g
                   transform="translate(-114.692,-9.664)"
                   id="g184"><text
                     id="text188"
                     style="font-variant:normal;font-weight:normal;font-size:9.96263981px;font-family:CMMI10;-inkscape-font-specification:CMMI10;writing-mode:lr-tb;fill:#000000;fill-opacity:1;fill-rule:nonzero;stroke:none"
                     transform="matrix(1,0,0,-1,114.692,9.664)"><tspan
                       id="tspan186"
                       y="0"
                       x="0">&lt;</tspan></text>
<g
                     transform="translate(114.692,9.664)"
                     id="g190" /></g></g><g
                 transform="translate(32.221,2.49)"
                 id="g192" /></g></g><g
             id="g194"><g
               transform="translate(-4.151,-0.525)"
               id="g196"><g
                 id="g198"><g
                   transform="translate(-142.762,-11.629)"
                   id="g200"><text
                     id="text204"
                     style="font-variant:normal;font-weight:normal;font-size:9.96263981px;font-family:CMMI10;-inkscape-font-specification:CMMI10;writing-mode:lr-tb;fill:#000000;fill-opacity:1;fill-rule:nonzero;stroke:none"
                     transform="matrix(1,0,0,-1,142.762,11.629)"><tspan
                       id="tspan202"
                       y="0"
                       x="0 2.7676213 5.5352426">...</tspan></text>
<g
                     transform="translate(142.762,11.629)"
                     id="g206" /></g></g><g
                 transform="translate(4.151,0.525)"
                 id="g208" /></g></g><g
             id="g210"><g
               transform="translate(24.472,-2.49)"
               id="g212"><g
                 id="g214"><g
                   transform="translate(-171.385,-9.664)"
                   id="g216"><text
                     id="text220"
                     style="font-variant:normal;font-weight:normal;font-size:9.96263981px;font-family:CMMI10;-inkscape-font-specification:CMMI10;writing-mode:lr-tb;fill:#000000;fill-opacity:1;fill-rule:nonzero;stroke:none"
                     transform="matrix(1,0,0,-1,171.385,9.664)"><tspan
                       id="tspan218"
                       y="0"
                       x="0">&lt;</tspan></text>
<g
                     transform="translate(171.385,9.664)"
                     id="g222" /></g></g><g
                 transform="translate(-24.472,2.49)"
                 id="g224" /></g></g><g
             id="g226"><path
               id="path228"
               style="fill:#609eff;fill-opacity:1;fill-rule:nonzero;stroke:#609eff;stroke-width:0.3985;stroke-linecap:butt;stroke-linejoin:miter;stroke-miterlimit:10;stroke-dasharray:none;stroke-opacity:1"
               d="m 68.64894,0 c 0,6.60281 -5.35251,11.95532 -11.95532,11.95532 C 50.09079,11.95532 44.7383,6.60281 44.7383,0 c 0,-6.60281 5.35249,-11.95532 11.95532,-11.95532 6.60281,0 11.95532,5.35251 11.95532,11.95532 z" /></g><g
             id="g230"><g
               transform="translate(51.611,-1.397)"
               id="g232"><g
                 id="g234"><g
                   transform="translate(-198.524,-10.757)"
                   id="g236"><text
                     id="text240"
                     style="font-variant:normal;font-weight:normal;font-size:9.96263981px;font-family:CMMI10;-inkscape-font-specification:CMMI10;writing-mode:lr-tb;fill:#000000;fill-opacity:1;fill-rule:nonzero;stroke:none"
                     transform="matrix(1,0,0,-1,198.524,10.757)"><tspan
                       id="tspan238"
                       y="0"
                       x="0">x</tspan></text>
<text
                     id="text244"
                     style="font-variant:normal;font-weight:normal;font-size:6.97384977px;font-family:CMR7;-inkscape-font-specification:CMR7;writing-mode:lr-tb;fill:#000000;fill-opacity:1;fill-rule:nonzero;stroke:none"
                     transform="matrix(1,0,0,-1,204.218,9.262)"><tspan
                       id="tspan242"
                       y="0"
                       x="0">2</tspan></text>
<g
                     transform="translate(198.524,10.757)"
                     id="g246" /></g></g><g
                 transform="translate(-51.611,1.397)"
                 id="g248" /></g></g><g
             id="g250"><g
               transform="translate(81.165,-2.49)"
               id="g252"><g
                 id="g254"><g
                   transform="translate(-228.078,-9.664)"
                   id="g256"><text
                     id="text260"
                     style="font-variant:normal;font-weight:normal;font-size:9.96263981px;font-family:CMMI10;-inkscape-font-specification:CMMI10;writing-mode:lr-tb;fill:#000000;fill-opacity:1;fill-rule:nonzero;stroke:none"
                     transform="matrix(1,0,0,-1,228.078,9.664)"><tspan
                       id="tspan258"
                       y="0"
                       x="0">&lt;</tspan></text>
<g
                     transform="translate(228.078,9.664)"
                     id="g262" /></g></g><g
                 transform="translate(-81.165,2.49)"
                 id="g264" /></g></g><g
             id="g266"><path
               id="path268"
               style="fill:#609eff;fill-opacity:1;fill-rule:nonzero;stroke:#609eff;stroke-width:0.3985;stroke-linecap:butt;stroke-linejoin:miter;stroke-miterlimit:10;stroke-dasharray:none;stroke-opacity:1"
               d="m 125.34256,0 c 0,6.60281 -5.35249,11.95532 -11.95532,11.95532 -6.60283,0 -11.95532,-5.35251 -11.95532,-11.95532 0,-6.60281 5.35249,-11.95532 11.95532,-11.95532 6.60283,0 11.95532,5.35251 11.95532,11.95532 z" /></g><g
             id="g270"><g
               transform="translate(108.304,-1.397)"
               id="g272"><g
                 id="g274"><g
                   transform="translate(-255.217,-10.757)"
                   id="g276"><text
                     id="text280"
                     style="font-variant:normal;font-weight:normal;font-size:9.96263981px;font-family:CMMI10;-inkscape-font-specification:CMMI10;writing-mode:lr-tb;fill:#000000;fill-opacity:1;fill-rule:nonzero;stroke:none"
                     transform="matrix(1,0,0,-1,255.217,10.757)"><tspan
                       id="tspan278"
                       y="0"
                       x="0">x</tspan></text>
<text
                     id="text284"
                     style="font-variant:normal;font-weight:normal;font-size:6.97384977px;font-family:CMR7;-inkscape-font-specification:CMR7;writing-mode:lr-tb;fill:#000000;fill-opacity:1;fill-rule:nonzero;stroke:none"
                     transform="matrix(1,0,0,-1,260.911,9.262)"><tspan
                       id="tspan282"
                       y="0"
                       x="0">1</tspan></text>
<g
                     transform="translate(255.217,10.757)"
                     id="g286" /></g></g><g
                 transform="translate(-108.304,1.397)"
                 id="g288" /></g></g></g></g></g></g></svg>